<?xml version="1.0" standalone="no"?>
<!DOCTYPE svg PUBLIC "-//W3C//DTD SVG 20010904//EN"
 "http://www.w3.org/TR/2001/REC-SVG-20010904/DTD/svg10.dtd">
<svg version="1.0" xmlns="http://www.w3.org/2000/svg"
 width="155.000000pt" height="150.000000pt" viewBox="0 0 155.000000 150.000000"
 preserveAspectRatio="xMidYMid meet">
<metadata>
Created by potrace 1.16, written by Peter Selinger 2001-2019
</metadata>
<g transform="translate(0.000000,150.000000) scale(0.100000,-0.100000)"
fill="#000000" stroke="none">
<path d="M320 1431 c-87 -27 -155 -87 -194 -170 -20 -45 -21 -60 -21 -496 0
-436 1 -451 21 -496 30 -63 79 -116 138 -147 l51 -27 460 0 c459 0 460 0 506
23 63 31 117 85 145 146 l24 51 0 450 c0 513 2 496 -88 588 -85 87 -86 87
-585 86 -238 0 -443 -4 -457 -8z m760 -227 c53 -25 103 -73 133 -129 21 -38
22 -52 22 -310 0 -259 -1 -272 -22 -311 -30 -56 -79 -103 -133 -128 -42 -20
-62 -21 -305 -21 l-260 0 -51 27 c-58 30 -98 73 -125 133 -16 35 -19 70 -19
300 0 230 3 265 19 300 37 82 99 132 188 155 21 5 144 8 273 7 215 -2 239 -4
280 -23z"/>
<path d="M530 1138 c-50 -14 -88 -44 -110 -88 -18 -36 -20 -60 -20 -285 0
-225 2 -249 20 -285 44 -86 94 -100 360 -100 221 0 262 6 311 47 63 53 69 82
69 338 0 202 -3 235 -19 270 -22 50 -69 91 -119 105 -47 13 -445 12 -492 -2z
m321 -150 c93 -27 159 -121 159 -224 -1 -136 -102 -234 -241 -234 -118 1 -229
117 -229 240 0 47 30 117 67 155 66 68 153 91 244 63z"/>
<path d="M715 906 c-17 -7 -43 -28 -58 -45 -106 -127 46 -311 193 -232 108 57
108 215 0 272 -40 22 -92 24 -135 5z"/>
</g>
</svg>
