<?xml version="1.0" standalone="no"?>
<!DOCTYPE svg PUBLIC "-//W3C//DTD SVG 20010904//EN"
 "http://www.w3.org/TR/2001/REC-SVG-20010904/DTD/svg10.dtd">
<svg version="1.0" xmlns="http://www.w3.org/2000/svg"
 width="171.000000pt" height="165.000000pt" viewBox="0 0 171.000000 165.000000"
 preserveAspectRatio="xMidYMid meet">
<metadata>
Created by potrace 1.16, written by Peter Selinger 2001-2019
</metadata>
<g transform="translate(0.000000,165.000000) scale(0.100000,-0.100000)"
fill="#000000" stroke="none">
<path d="M297 1576 c-58 -21 -103 -61 -131 -118 l-26 -52 0 -556 0 -556 26
-52 c14 -29 41 -64 58 -77 72 -55 75 -55 648 -55 374 0 543 3 576 12 71 18
146 96 162 169 8 39 10 205 8 589 -3 593 -1 568 -70 639 -68 69 -34 66 -653
68 -450 2 -567 0 -598 -11z m886 -417 c77 -11 108 -27 127 -67 20 -45 32 -232
21 -347 -15 -169 -34 -189 -191 -206 -127 -14 -547 -6 -605 11 -93 28 -108 70
-108 310 1 281 15 297 267 310 162 8 390 3 489 -11z"/>
<path d="M790 850 c0 -71 2 -130 4 -130 8 0 200 112 214 125 9 8 -13 25 -97
73 -60 34 -111 62 -115 62 -3 0 -6 -58 -6 -130z"/>
</g>
</svg>
