<?xml version="1.0" standalone="no"?>
<!DOCTYPE svg PUBLIC "-//W3C//DTD SVG 20010904//EN"
 "http://www.w3.org/TR/2001/REC-SVG-20010904/DTD/svg10.dtd">
<svg version="1.0" xmlns="http://www.w3.org/2000/svg"
 width="152.000000pt" height="150.000000pt" viewBox="0 0 152.000000 150.000000"
 preserveAspectRatio="xMidYMid meet">
<metadata>
Created by potrace 1.16, written by Peter Selinger 2001-2019
</metadata>
<g transform="translate(0.000000,150.000000) scale(0.100000,-0.100000)"
fill="#000000" stroke="none">
<path d="M276 1424 c-76 -28 -134 -82 -171 -159 l-25 -50 0 -450 0 -450 24
-50 c31 -67 98 -131 165 -156 52 -19 73 -20 500 -17 l446 3 51 27 c59 31 108
84 138 147 20 45 21 60 21 496 l0 450 -28 57 c-30 61 -74 105 -140 140 -42 23
-46 23 -492 25 -372 2 -457 -1 -489 -13z m639 -264 c83 -32 183 -133 215 -216
33 -90 37 -177 11 -262 -65 -215 -298 -332 -514 -258 l-68 23 -101 -33 c-56
-18 -104 -31 -107 -29 -2 3 11 49 30 102 l35 98 -24 59 c-61 151 -31 305 82
424 51 54 92 79 164 103 76 25 194 21 277 -11z"/>
<path d="M653 1109 c-185 -58 -279 -274 -196 -450 l30 -64 -19 -54 c-10 -30
-17 -55 -15 -57 1 -1 29 5 63 14 56 14 64 14 95 0 98 -47 189 -47 289 -2 100
44 168 134 189 247 29 155 -72 319 -226 367 -80 25 -130 25 -210 -1z m25 -182
c21 -45 22 -50 8 -73 -9 -13 -16 -28 -16 -34 0 -17 67 -85 104 -105 l35 -19
29 27 29 27 46 -20 c47 -21 55 -36 41 -75 -8 -20 -56 -45 -88 -45 -76 0 -195
76 -255 164 -44 64 -55 107 -37 149 29 71 71 72 104 4z"/>
</g>
</svg>
