<?xml version="1.0" standalone="no"?>
<!DOCTYPE svg PUBLIC "-//W3C//DTD SVG 20010904//EN"
 "http://www.w3.org/TR/2001/REC-SVG-20010904/DTD/svg10.dtd">
<svg version="1.0" xmlns="http://www.w3.org/2000/svg"
 width="155.000000pt" height="148.000000pt" viewBox="0 0 155.000000 148.000000"
 preserveAspectRatio="xMidYMid meet">
<metadata>
Created by potrace 1.16, written by Peter Selinger 2001-2019
</metadata>
<g transform="translate(0.000000,148.000000) scale(0.100000,-0.100000)"
fill="#000000" stroke="none">
<path d="M265 1392 c-76 -36 -139 -106 -160 -175 -22 -75 -22 -870 0 -944 21
-71 88 -142 164 -177 l60 -27 448 3 448 3 49 25 c62 32 130 107 150 167 24 69
24 886 0 956 -20 60 -84 131 -148 165 l-51 27 -450 3 -450 2 -60 -28z m695
-322 l0 -70 -59 0 c-65 0 -71 -6 -71 -66 l0 -34 66 0 65 0 -6 -72 c-9 -102 -6
-98 -75 -98 l-60 0 0 -200 0 -200 -80 0 -80 0 0 200 0 200 -40 0 -40 0 0 85 0
85 39 0 38 0 5 70 c9 128 60 169 211 169 l87 1 0 -70z"/>
</g>
</svg>
